<?xml version="1.0" standalone="no"?>
<!DOCTYPE svg PUBLIC "-//W3C//DTD SVG 20010904//EN"
 "http://www.w3.org/TR/2001/REC-SVG-20010904/DTD/svg10.dtd">
<svg version="1.0" xmlns="http://www.w3.org/2000/svg"
 width="500.000000pt" height="500.000000pt" viewBox="0 0 500.000000 500.000000"
 preserveAspectRatio="xMidYMid meet">
<metadata>
Created by potrace 1.14, written by Peter Selinger 2001-2017
</metadata>
<g transform="translate(0.000000,500.000000) scale(0.100000,-0.100000)"
fill="#000000" stroke="none">
<path d="M1310 3540 c0 -5 25 -56 56 -111 l57 -102 -92 -706 c-51 -388 -95
-723 -98 -743 l-5 -37 201 67 202 67 156 243 c85 134 158 241 160 238 4 -4
-42 -543 -52 -598 -3 -18 0 -28 7 -28 10 0 329 118 335 123 3 4 293 1340 291
1343 -2 1 -54 -111 -117 -249 -63 -139 -118 -256 -123 -261 -4 -6 -8 51 -8
126 l0 136 -114 106 c-62 58 -116 106 -118 106 -3 0 -72 -117 -154 -260 -81
-143 -149 -258 -151 -256 -2 2 21 173 52 381 30 208 55 389 55 402 l0 23 -270
0 c-171 0 -270 -4 -270 -10z"/>
<path d="M2440 3534 c0 -3 36 -52 79 -108 l80 -103 -147 -674 -147 -674 189
-3 c104 -1 191 0 193 2 3 3 41 170 85 373 44 202 84 372 88 376 11 12 138
-360 143 -420 3 -37 12 -63 35 -94 18 -24 32 -50 32 -58 0 -24 -47 27 -74 80
-21 43 -25 46 -30 26 -22 -82 6 -144 93 -208 64 -46 67 -50 96 -133 16 -47 31
-86 33 -86 2 0 26 16 53 36 l49 36 -47 31 c-45 30 -48 35 -48 78 -1 54 -10 54
113 -2 45 -21 82 -34 82 -29 0 4 -36 27 -80 49 -44 23 -80 44 -80 47 0 3 6 2
13 -2 9 -6 9 -4 1 7 -12 17 -12 48 0 68 7 10 5 12 -5 6 -10 -6 -11 -5 -3 4 11
12 70 -6 153 -49 l38 -19 38 172 c28 132 42 178 60 197 44 48 65 93 65 143 0
55 -11 61 -28 15 -6 -17 -14 -29 -18 -26 -5 6 14 101 131 631 36 164 65 302
65 307 0 6 -74 10 -189 10 -172 0 -190 -2 -195 -17 -3 -10 -33 -146 -66 -303
-71 -331 -68 -320 -79 -300 -5 8 -51 151 -102 317 l-94 303 -287 0 c-159 0
-288 -3 -288 -6z m990 -979 c0 -41 -3 -46 -42 -73 -54 -37 -303 -162 -322
-162 -19 0 -46 82 -30 87 6 2 94 46 195 97 101 52 187 94 192 95 4 0 7 -19 7
-44z m35 -92 c-1 -27 -2 -51 -3 -54 -4 -12 -112 -79 -203 -124 l-93 -47 -33
17 c-75 41 -73 45 56 103 65 29 154 75 197 102 44 27 79 49 80 50 0 0 0 -21
-1 -47z"/>
<path d="M1730 1778 c-5 -13 -12 -36 -16 -53 -7 -30 -7 -30 -18 15 -10 38 -16
45 -36 45 -29 0 -29 -5 1 -107 15 -50 24 -68 37 -68 25 0 38 12 47 40 8 25 8
25 17 -7 8 -33 29 -42 55 -25 6 4 18 34 26 67 30 122 30 115 3 115 -21 0 -26
-6 -32 -37 -8 -44 -23 -78 -24 -53 0 8 -5 32 -11 53 -11 42 -35 49 -49 15z"/>
<path d="M1898 1783 c-15 -4 -18 -17 -18 -89 l0 -84 44 0 c57 0 76 8 76 31 0
15 -7 19 -36 19 -21 0 -33 4 -29 10 3 6 19 10 36 10 24 0 29 4 29 24 0 23 -3
24 -35 19 -23 -4 -35 -2 -35 6 0 6 9 11 19 11 33 0 51 11 51 31 0 16 -7 19
-42 18 -24 -1 -51 -3 -60 -6z"/>
<path d="M2033 1783 c-9 -3 -13 -31 -13 -90 l0 -86 50 5 c28 3 59 13 70 23 21
19 26 50 10 60 -5 3 -7 20 -3 37 5 23 2 34 -12 45 -18 13 -77 17 -102 6z m60
-48 c1 -5 -6 -11 -15 -13 -11 -2 -18 3 -18 13 0 17 30 18 33 0z m7 -64 c0 -5
-7 -12 -16 -15 -22 -9 -24 -8 -24 9 0 8 9 15 20 15 11 0 20 -4 20 -9z"/>
<path d="M2547 1783 c-16 -4 -17 -15 -15 -86 3 -76 5 -82 25 -85 20 -3 22 2
25 44 l3 48 28 -42 c17 -26 35 -42 47 -42 18 0 20 7 20 85 0 83 0 85 -24 85
-21 0 -25 -5 -28 -37 l-3 -38 -23 38 c-13 20 -27 36 -30 36 -4 -1 -15 -3 -25
-6z"/>
<path d="M2745 1778 c-19 -55 -42 -158 -35 -158 5 0 15 -3 24 -6 11 -4 16 -1
16 10 0 18 40 22 56 6 11 -11 44 -4 44 9 0 4 -11 38 -23 77 -21 60 -27 69 -50
72 -16 2 -29 -2 -32 -10z m36 -101 c-15 -15 -24 -2 -16 24 7 20 8 21 17 5 7
-12 7 -21 -1 -29z"/>
<path d="M2880 1710 l0 -80 55 0 c48 0 55 2 55 20 0 16 -7 20 -35 20 l-35 0 0
60 c0 53 -2 60 -20 60 -18 0 -20 -7 -20 -80z"/>
<path d="M3038 1783 l-28 -4 0 -86 c0 -84 0 -85 23 -79 12 3 37 6 55 6 26 0
32 4 32 21 0 18 -5 21 -35 17 -24 -3 -35 0 -35 9 0 8 13 13 35 13 28 0 35 4
35 20 0 16 -7 20 -35 20 -19 0 -35 4 -35 9 0 11 25 21 51 21 12 0 19 7 19 20
0 21 -15 23 -82 13z"/>
<path d="M3157 1783 c-16 -4 -17 -15 -15 -86 3 -76 5 -82 25 -85 20 -3 22 2
25 44 l3 48 28 -42 c17 -26 35 -42 47 -42 18 0 20 7 20 85 0 83 0 85 -24 85
-21 0 -25 -5 -28 -37 l-3 -38 -23 38 c-13 20 -27 36 -30 36 -4 -1 -15 -3 -25
-6z"/>
</g>
</svg>
